<svg xmlns="http://www.w3.org/2000/svg" xmlns:xlink="http://www.w3.org/1999/xlink" width="400" height="400" viewBox="0 0 400 400"><rect width="100%" height="100%" fill="#DDDDDD"/><path d="M105.67 173.35L112.67 173.35L112.67 216.00L108.59 216.00Q107.65 216.00 107.02 215.69Q106.38 215.38 105.79 214.65L105.79 214.65L83.52 186.21Q83.70 188.16 83.70 189.81L83.70 189.81L83.70 216.00L76.70 216.00L76.70 173.35L80.86 173.35Q81.37 173.35 81.73 173.39Q82.10 173.44 82.38 173.57Q82.66 173.70 82.93 173.95Q83.19 174.20 83.52 174.62L83.52 174.62L105.88 203.17Q105.79 202.14 105.73 201.14Q105.67 200.13 105.67 199.28L105.67 199.28L105.67 173.35ZM134.41 185.26L134.41 185.26Q137.77 185.26 140.53 186.36Q143.29 187.45 145.25 189.45Q147.21 191.46 148.27 194.35Q149.33 197.24 149.33 200.81L149.33 200.81Q149.33 204.41 148.27 207.30Q147.21 210.19 145.25 212.23Q143.29 214.26 140.53 215.35Q137.77 216.45 134.41 216.45L134.41 216.45Q131.01 216.45 128.24 215.35Q125.47 214.26 123.51 212.23Q121.54 210.19 120.47 207.30Q119.39 204.41 119.39 200.81L119.39 200.81Q119.39 197.24 120.47 194.35Q121.54 191.46 123.51 189.45Q125.47 187.45 128.24 186.36Q131.01 185.26 134.41 185.26ZM134.41 210.84L134.41 210.84Q138.18 210.84 140.00 208.30Q141.81 205.77 141.81 200.87L141.81 200.87Q141.81 195.97 140.00 193.41Q138.18 190.84 134.41 190.84L134.41 190.84Q130.57 190.84 128.73 193.42Q126.88 196.00 126.88 200.87L126.88 200.87Q126.88 205.74 128.73 208.29Q130.57 210.84 134.41 210.84ZM178.36 173.35L178.36 216.00L170.40 216.00L170.40 173.35L178.36 173.35ZM194.03 216.00L186.74 216.00L186.74 185.74L191.19 185.74Q192.61 185.74 193.05 187.06L193.05 187.06L193.52 189.31Q194.32 188.42 195.19 187.68Q196.06 186.95 197.05 186.42Q198.04 185.88 199.17 185.57Q200.31 185.26 201.67 185.26L201.67 185.26Q204.53 185.26 206.37 186.81Q208.22 188.36 209.13 190.93L209.13 190.93Q209.84 189.42 210.90 188.35Q211.96 187.27 213.23 186.59Q214.50 185.91 215.93 185.59Q217.36 185.26 218.81 185.26L218.81 185.26Q221.31 185.26 223.26 186.03Q225.21 186.80 226.54 188.27Q227.86 189.75 228.56 191.87Q229.25 194.00 229.25 196.74L229.25 196.74L229.25 216.00L221.96 216.00L221.96 196.74Q221.96 193.85 220.69 192.39Q219.43 190.93 216.98 190.93L216.98 190.93Q215.86 190.93 214.90 191.31Q213.94 191.70 213.22 192.42Q212.49 193.14 212.08 194.23Q211.67 195.32 211.67 196.74L211.67 196.74L211.67 216.00L204.35 216.00L204.35 196.74Q204.35 193.70 203.13 192.32Q201.90 190.93 199.54 190.93L199.54 190.93Q197.95 190.93 196.58 191.71Q195.21 192.49 194.03 193.85L194.03 193.85L194.03 216.00ZM252.14 208.19L252.14 203.08Q248.98 203.23 246.83 203.63Q244.68 204.03 243.38 204.65Q242.08 205.27 241.52 206.09Q240.96 206.92 240.96 207.89L240.96 207.89Q240.96 209.81 242.10 210.63Q243.23 211.46 245.06 211.46L245.06 211.46Q247.30 211.46 248.94 210.65Q250.58 209.84 252.14 208.19L252.14 208.19ZM236.74 192.29L235.44 189.96Q240.67 185.18 248.01 185.18L248.01 185.18Q250.67 185.18 252.76 186.05Q254.86 186.92 256.30 188.47Q257.75 190.01 258.50 192.17Q259.25 194.32 259.25 196.89L259.25 196.89L259.25 216.00L255.95 216.00Q254.91 216.00 254.35 215.69Q253.79 215.38 253.47 214.44L253.47 214.44L252.82 212.26Q251.67 213.29 250.58 214.07Q249.49 214.85 248.31 215.38Q247.13 215.92 245.78 216.20Q244.44 216.48 242.82 216.48L242.82 216.48Q240.90 216.48 239.28 215.96Q237.66 215.44 236.48 214.41Q235.30 213.38 234.65 211.84Q234.00 210.31 234.00 208.27L234.00 208.27Q234.00 207.12 234.38 205.99Q234.77 204.85 235.64 203.82Q236.51 202.79 237.89 201.87Q239.28 200.96 241.30 200.28Q243.32 199.60 246.01 199.17Q248.69 198.75 252.14 198.66L252.14 198.66L252.14 196.89Q252.14 193.85 250.84 192.39Q249.55 190.93 247.10 190.93L247.10 190.93Q245.33 190.93 244.16 191.34Q243.00 191.75 242.11 192.27Q241.23 192.79 240.50 193.20Q239.78 193.61 238.90 193.61L238.90 193.61Q238.13 193.61 237.60 193.22Q237.07 192.82 236.74 192.29L236.74 192.29ZM277.16 200.13L277.16 200.13Q278.51 200.13 279.52 199.76Q280.52 199.40 281.18 198.75Q281.85 198.10 282.19 197.18Q282.53 196.27 282.53 195.18L282.53 195.18Q282.53 192.93 281.18 191.62Q279.84 190.31 277.16 190.31L277.16 190.31Q274.47 190.31 273.13 191.62Q271.79 192.93 271.79 195.18L271.79 195.18Q271.79 196.24 272.13 197.15Q272.47 198.07 273.13 198.73Q273.79 199.40 274.81 199.76Q275.83 200.13 277.16 200.13ZM285.39 217.36L285.39 217.36Q285.39 216.48 284.86 215.92Q284.33 215.35 283.41 215.04Q282.50 214.74 281.27 214.59Q280.05 214.44 278.68 214.37Q277.30 214.29 275.84 214.23Q274.38 214.17 273.00 214.00L273.00 214.00Q271.79 214.68 271.04 215.59Q270.28 216.51 270.28 217.71L270.28 217.71Q270.28 218.51 270.68 219.20Q271.08 219.90 271.95 220.40Q272.82 220.90 274.21 221.18Q275.59 221.46 277.60 221.46L277.60 221.46Q279.64 221.46 281.11 221.15Q282.59 220.84 283.54 220.30Q284.50 219.75 284.95 219.00Q285.39 218.25 285.39 217.36ZM283.94 186.77L292.64 186.77L292.64 189.48Q292.64 190.78 291.08 191.08L291.08 191.08L288.37 191.58Q288.99 193.14 288.99 195.00L288.99 195.00Q288.99 197.24 288.09 199.06Q287.19 200.87 285.59 202.14Q284.00 203.41 281.83 204.10Q279.66 204.79 277.16 204.79L277.16 204.79Q276.27 204.79 275.45 204.71Q274.62 204.62 273.82 204.47L273.82 204.47Q272.41 205.32 272.41 206.39L272.41 206.39Q272.41 207.30 273.25 207.73Q274.09 208.16 275.48 208.33Q276.86 208.51 278.63 208.56Q280.40 208.60 282.26 208.75Q284.12 208.89 285.89 209.26Q287.66 209.63 289.05 210.43Q290.43 211.22 291.27 212.60Q292.11 213.97 292.11 216.12L292.11 216.12Q292.11 218.13 291.13 220.02Q290.14 221.90 288.26 223.38Q286.39 224.85 283.66 225.75Q280.93 226.65 277.45 226.65L277.45 226.65Q274.03 226.65 271.49 225.99Q268.96 225.33 267.27 224.22Q265.59 223.11 264.77 221.67Q263.94 220.22 263.94 218.66L263.94 218.66Q263.94 216.53 265.22 215.10Q266.51 213.67 268.75 212.82L268.75 212.82Q267.54 212.20 266.83 211.17Q266.12 210.13 266.12 208.45L266.12 208.45Q266.12 207.77 266.38 207.05Q266.63 206.33 267.11 205.62Q267.60 204.91 268.34 204.28Q269.07 203.64 270.08 203.14L270.08 203.14Q267.78 201.90 266.46 199.84Q265.15 197.77 265.15 195.00L265.15 195.00Q265.15 192.76 266.05 190.94Q266.95 189.13 268.56 187.85Q270.17 186.56 272.36 185.88Q274.56 185.21 277.16 185.21L277.16 185.21Q279.10 185.21 280.82 185.60Q282.53 186.00 283.94 186.77L283.94 186.77ZM303.00 197.39L316.75 197.39Q316.75 195.97 316.35 194.72Q315.95 193.47 315.15 192.52Q314.36 191.58 313.13 191.03Q311.91 190.49 310.29 190.49L310.29 190.49Q307.13 190.49 305.32 192.29Q303.50 194.09 303.00 197.39L303.00 197.39ZM321.58 201.78L302.85 201.78Q303.03 204.12 303.68 205.81Q304.33 207.51 305.39 208.61Q306.45 209.72 307.91 210.27Q309.37 210.81 311.14 210.81L311.14 210.81Q312.91 210.81 314.19 210.40Q315.48 209.99 316.44 209.48Q317.40 208.98 318.12 208.57Q318.84 208.16 319.52 208.16L319.52 208.16Q320.43 208.16 320.88 208.84L320.88 208.84L322.97 211.49Q321.76 212.91 320.26 213.87Q318.75 214.82 317.12 215.40Q315.48 215.97 313.78 216.21Q312.09 216.45 310.49 216.45L310.49 216.45Q307.34 216.45 304.62 215.40Q301.91 214.35 299.90 212.30Q297.90 210.25 296.75 207.23Q295.59 204.20 295.59 200.22L295.59 200.22Q295.59 197.12 296.60 194.39Q297.60 191.67 299.47 189.65Q301.35 187.62 304.05 186.44Q306.75 185.26 310.14 185.26L310.14 185.26Q313.00 185.26 315.42 186.18Q317.84 187.09 319.58 188.85Q321.32 190.60 322.31 193.16Q323.30 195.71 323.30 198.98L323.30 198.98Q323.30 200.63 322.94 201.21Q322.59 201.78 321.58 201.78L321.58 201.78Z" fill="#999999"/></svg>